<svg width="14" height="14" viewBox="0 0 14 14" fill="none" xmlns="http://www.w3.org/2000/svg">
<g id="quran 1" clip-path="url(#clip0_2434_1971)">
<path id="Vector" fill-rule="evenodd" clip-rule="evenodd" d="M6.99698 7.86468L7.09542 7.85442V7.86468C7.22521 7.86872 7.35343 7.89436 7.47479 7.94055L7.68806 8.02668L6.99903 8.29327L6.37153 8.04924L6.56839 7.95901C6.70306 7.90007 6.85001 7.86802 6.99698 7.86468ZM11.771 9.6057V9.62621L11.7587 10.1266L8.17202 8.74442L10.0484 7.99797L10.0894 8.05129C10.2289 8.2338 10.3868 8.40606 10.5611 8.55165C10.8215 8.76903 11.1312 8.92078 11.4593 8.99665C11.541 9.01971 11.6139 9.06688 11.6684 9.132C11.7792 9.26324 11.7976 9.4355 11.773 9.59955V9.6057H11.771ZM6.07418 8.84285L6.755 9.11354L2.668 10.7397H2.65364C2.59543 10.7471 2.53633 10.7417 2.48039 10.724C2.42446 10.7063 2.37303 10.6767 2.32963 10.6372C2.27082 10.5754 2.23343 10.4963 2.223 10.4116L2.21069 10.3419L2.27837 10.3152C3.53133 9.82513 4.78635 9.33911 6.04137 8.85515L6.07418 8.84285ZM2.2271 9.6057V9.5975C2.20249 9.43345 2.2189 9.26119 2.32963 9.12995C2.38416 9.06483 2.45706 9.01766 2.5388 8.9946C2.86896 8.91873 3.17862 8.76903 3.43905 8.5496C3.61336 8.40401 3.77126 8.23175 3.90866 8.04924L3.94967 7.99592L5.82809 8.74237L5.61072 8.82439C4.52591 9.24273 3.44315 9.66517 2.36039 10.0856L2.24145 10.1327L2.2271 9.62416V9.6057ZM6.02291 8.62753L3.95172 7.80521L3.94762 7.8011L2.91203 7.39097C2.75723 7.33954 2.6118 7.26336 2.48138 7.16539C2.36244 7.07311 2.25786 6.94802 2.24145 6.79217L2.22505 6.64452L6.21567 8.18253L6.23003 8.18868L6.95392 8.46758L6.98058 8.47783L7.89108 8.83055L7.90543 8.83465L11.7874 10.3316L11.7792 10.4014C11.7702 10.4868 11.7343 10.5673 11.6766 10.631C11.5885 10.7233 11.4675 10.7479 11.3444 10.7397H11.3301L7.04825 9.03561L7.01749 9.02331L6.02291 8.62753ZM11.2747 6.83728L11.285 6.83318L11.7751 6.64452L11.7587 6.79217C11.7551 6.82223 11.7482 6.8518 11.7382 6.88035C11.6932 6.99521 11.6155 7.09433 11.5146 7.16539C11.4318 7.22756 11.3424 7.28051 11.248 7.3233C11.1968 7.3479 11.1455 7.36636 11.0922 7.38892L10.0545 7.8011L10.0443 7.80521L7.92389 8.64804L7.25127 8.3876L7.83571 8.16202C7.84186 8.16202 7.85007 8.15792 7.85622 8.15382L11.2747 6.83728ZM7.13438 7.57553C7.19553 7.36245 7.3066 7.16701 7.45839 7.00544C7.75984 6.68348 8.19663 6.50097 8.61497 6.38819C8.83644 6.32666 9.06202 6.28155 9.28964 6.24464L9.88434 6.15236C10.0135 6.13185 10.155 6.11134 10.2781 6.07033C10.2986 6.06213 10.395 6.02727 10.4011 6.00061L10.4032 5.99856V2.41602L11.1927 2.97585L11.1578 6.68758L7.84391 7.96516L7.8029 7.92825C7.72405 7.86029 7.6338 7.80683 7.53631 7.77034C7.43144 7.73041 7.32185 7.70421 7.21025 7.69242L7.10362 7.68011L7.13438 7.57553ZM6.78987 7.70472C6.70062 7.71977 6.61329 7.74453 6.52943 7.77855C6.43043 7.81852 6.33996 7.87698 6.26284 7.9508L6.22183 7.99182L2.80949 6.67733L2.80744 2.97585L3.59695 2.41602V6.00061C3.59695 6.05392 3.64412 6.09084 3.69539 6.09084C3.91907 6.0997 4.14218 6.11954 4.36391 6.15031C4.76379 6.20567 5.16983 6.29385 5.54715 6.4333C6.10084 6.63837 6.68118 6.98698 6.85959 7.58783L6.89035 7.68627L6.78987 7.70472Z" fill="white"/>
<path id="Vector_2" fill-rule="evenodd" clip-rule="evenodd" d="M6.91088 4.1711V7.20611L6.74683 7.01129C6.12752 6.26485 4.78432 5.98595 3.86152 5.91828L3.77949 5.91213V2.33984L3.87792 2.34805C4.72896 2.42802 5.86093 2.6454 6.49869 3.27495C6.65044 3.42465 6.77964 3.60306 6.85141 3.80608C6.88217 3.88811 6.90883 3.99064 6.90883 4.07882L6.91088 4.1711ZM7.08929 4.09728V4.08087C7.08929 3.99474 7.118 3.89016 7.14671 3.81018C7.22213 3.6089 7.34119 3.42682 7.49533 3.27701C8.13309 2.64745 9.26916 2.42802 10.1222 2.34805L10.2207 2.33984V5.91213L10.1387 5.91828C9.21585 5.98595 7.8747 6.2669 7.24924 7.01129L7.08929 7.20201V4.09728ZM2.11639 10.9342H11.8817C11.978 10.9342 12.0703 10.9725 12.1384 11.0406C12.2065 11.1086 12.2447 11.201 12.2447 11.2972C12.2447 11.3935 12.2065 11.4858 12.1384 11.5539C12.0703 11.6219 11.978 11.6602 11.8817 11.6602H2.11639C2.02012 11.6602 1.9278 11.6219 1.85973 11.5539C1.79166 11.4858 1.75342 11.3935 1.75342 11.2972C1.75342 11.201 1.79166 11.1086 1.85973 11.0406C1.9278 10.9725 2.02012 10.9342 2.11639 10.9342Z" fill="white"/>
</g>
<defs>
<clipPath id="clip0_2434_1971">
<rect width="14" height="14" fill="white"/>
</clipPath>
</defs>
</svg>
