<svg width="14" height="14" viewBox="0 0 14 14" fill="none" xmlns="http://www.w3.org/2000/svg">
<g id="svg8">
<g id="layer1">
<g id="g8609">
<g id="g8593">
<path id="path9617" d="M7.00007 3.12428e-05C6.03319 3.43141e-05 5.24679 0.805985 5.24679 1.7874C5.24679 2.76882 6.0332 3.57459 7.00007 3.57459C7.94712 3.57459 8.71607 2.80016 8.74739 1.84617C8.75124 1.82682 8.75319 1.80714 8.75319 1.7874C8.75318 1.76773 8.75123 1.7481 8.74739 1.72881C8.74739 1.7286 8.74739 1.7284 8.74739 1.72819C8.71588 0.774376 7.94723 3.07129e-06 7.00032 0L7.00007 3.12428e-05ZM7.00007 0.598443C7.29293 0.598443 7.55972 0.708341 7.76353 0.890428L6.24339 0.884317C6.44636 0.705888 6.71048 0.598443 7.00007 0.598443ZM5.87849 1.4811L8.12387 1.49012C8.14739 1.58496 8.15986 1.68455 8.15986 1.7874C8.15986 2.44964 7.64205 2.97612 7.00007 2.97613C6.35808 2.97612 5.84007 2.44964 5.84007 1.7874C5.84007 1.68127 5.85351 1.57866 5.87849 1.4811ZM6.19898 3.77913C5.69038 3.77913 5.21634 3.94022 4.8637 4.2494C4.51105 4.55858 4.29064 5.02093 4.29064 5.55631C4.29064 5.56226 4.29168 5.57395 4.29168 5.58191C4.29112 5.58857 4.29076 5.59525 4.29064 5.60193V6.39195C4.29067 6.40104 4.29113 6.41013 4.29198 6.41918C4.17092 6.57056 4.0979 6.76232 4.0979 6.96982C4.0979 7.35698 4.35158 7.68941 4.69887 7.80639L4.35687 10.9782H3.54869C3.48347 10.9782 3.42003 10.9996 3.36815 11.039C3.31626 11.0784 3.2788 11.1338 3.26142 11.1965L2.58818 13.6214C2.57594 13.6656 2.57409 13.712 2.58277 13.757C2.59146 13.802 2.61044 13.8444 2.63824 13.8809C2.66605 13.9174 2.70195 13.947 2.74309 13.9673C2.78423 13.9877 2.82952 13.9983 2.87545 13.9984L11.1245 14C11.1705 14 11.2158 13.9894 11.257 13.969C11.2982 13.9486 11.3341 13.9189 11.3619 13.8824C11.3897 13.8459 11.4087 13.8034 11.4173 13.7584C11.426 13.7133 11.4241 13.6669 11.4118 13.6226L10.735 11.196C10.7175 11.1333 10.6799 11.0781 10.6281 11.0388C10.5762 10.9995 10.5129 10.9782 10.4477 10.9782C10.1454 10.978 9.90851 10.9782 9.64257 10.9782L9.30062 7.82879C9.29986 7.8217 9.29886 7.81463 9.2976 7.80761C9.64671 7.69171 9.90213 7.3583 9.90213 6.96982C9.90213 6.76245 9.82923 6.57081 9.7083 6.41947C9.70916 6.41032 9.70957 6.40114 9.70959 6.39195V5.60193C9.70945 5.59565 9.70914 5.58938 9.7086 5.58313C9.70868 5.5747 9.70959 5.56253 9.70959 5.55631C9.70959 5.02093 9.48898 4.55858 9.13634 4.2494C8.81354 3.9664 8.38725 3.81418 7.92762 3.78931C7.90546 3.78404 7.88277 3.78136 7.86 3.78133H7.82788C7.81874 3.78123 7.81022 3.77912 7.80111 3.77912C7.7901 3.77916 7.77908 3.77982 7.76814 3.7811L6.19947 3.77912L6.19898 3.77913ZM6.19898 4.37759L6.70343 4.37821V5.58631C6.70344 5.6256 6.7111 5.66452 6.72603 5.70082C6.74096 5.73712 6.76286 5.7701 6.79043 5.79787C6.818 5.82565 6.85073 5.84767 6.88674 5.86269C6.92276 5.87771 6.96134 5.88542 7.00032 5.8854C7.07898 5.88539 7.15443 5.85387 7.21006 5.79779C7.26568 5.7417 7.29693 5.66563 7.29696 5.58631V4.3789L7.8133 4.37952C8.19208 4.38225 8.51984 4.50151 8.74725 4.70089C8.97728 4.90256 9.11626 5.17937 9.11626 5.55626C9.11626 5.57153 9.11626 5.57992 9.11626 5.58168C9.11518 5.59639 9.11518 5.61115 9.11626 5.62585V6.0927C9.08722 6.0897 9.05775 6.08816 9.02797 6.08816H8.4282C7.94898 6.08816 7.55389 6.48653 7.55389 6.96977C7.55389 7.45301 7.94898 7.85132 8.4282 7.85132H8.70937C8.70888 7.86554 8.70935 7.87977 8.71086 7.89392L9.08012 11.2933H4.91961L5.28942 7.86674C5.28996 7.86161 5.29039 7.85647 5.29066 7.85132H6.44922C6.92844 7.85132 7.32348 7.453 7.32348 6.96977C7.32348 6.48654 6.92844 6.08816 6.44922 6.08816H4.97236C4.9426 6.08816 4.91315 6.08971 4.88412 6.0927V5.62527C4.88517 5.61076 4.88517 5.59619 4.88412 5.58168C4.88412 5.57992 4.88412 5.57153 4.88412 5.55626C4.88412 5.17936 5.02306 4.90256 5.25309 4.70089C5.48306 4.49926 5.8147 4.37764 6.19898 4.37759ZM4.97241 6.68644H6.44927C6.61004 6.68644 6.73025 6.8077 6.73025 6.96982C6.73025 7.13193 6.61004 7.2529 6.44927 7.2529H4.97241C4.81166 7.2529 4.69138 7.13192 4.69138 6.96982C4.69138 6.80771 4.81166 6.68644 4.97241 6.68644ZM8.4282 6.68644H9.02797C9.18873 6.68644 9.309 6.80771 9.309 6.96982C9.309 7.13192 9.18873 7.2529 9.02797 7.2529H8.4282C8.26743 7.2529 8.14742 7.13192 8.14742 6.96982C8.14742 6.80771 8.26743 6.68644 8.4282 6.68644ZM3.77568 11.5736H4.29317C4.29061 11.6144 4.29636 11.6553 4.31007 11.6937C4.32379 11.7322 4.34515 11.7674 4.37288 11.7972C4.40061 11.827 4.4341 11.8508 4.47128 11.867C4.50847 11.8832 4.54859 11.8916 4.58912 11.8917H4.99318V11.9038C4.99318 12.3871 5.38823 12.7854 5.86744 12.7854C6.34665 12.7854 6.74165 12.3871 6.74165 11.9038V11.8917H7.25859V11.9038C7.25859 12.3871 7.65389 12.7854 8.13309 12.7854C8.61231 12.7854 9.00735 12.3871 9.00735 11.9038V11.8917H9.41112C9.45165 11.8917 9.49171 11.8833 9.5289 11.867C9.56609 11.8508 9.59962 11.827 9.62735 11.7972C9.65509 11.7674 9.67644 11.7322 9.69016 11.6937C9.70388 11.6553 9.70967 11.6144 9.70712 11.5736C9.87692 11.5736 10.0502 11.5736 10.2211 11.5736L10.7321 13.4049L3.26776 13.4032L3.77568 11.5736ZM5.58864 11.9095H6.14623C6.14298 12.0682 6.026 12.187 5.86744 12.187C5.7089 12.187 5.59191 12.0682 5.58864 11.9095ZM7.8543 11.9095H8.41169C8.40844 12.0682 8.29165 12.187 8.13309 12.187C7.97455 12.187 7.85756 12.0682 7.8543 11.9095Z" fill="white"/>
</g>
</g>
</g>
</g>
</svg>
