<svg width="14" height="14" viewBox="0 0 14 14" fill="none" xmlns="http://www.w3.org/2000/svg">
<g id="Frame" clip-path="url(#clip0_2434_1964)">
<path id="Vector" d="M11 0H1.5C0.671562 0 0 0.587617 0 1.3125V9.1875C0 9.57469 0.195188 9.91922 0.5 10.1593V12.384C0.206469 12.5371 0 12.8051 0 13.1004C0 13.609 0.447812 14 0.971875 14H10.9719C12.6287 14 13.9719 12.8248 13.9719 11.375V2.625C14 1.17523 12.6562 0 11 0ZM10.15 4.65937C10.2439 4.67112 10.2842 4.77296 10.2126 4.83167L9.56875 5.38398L9.72091 6.16328C9.73433 6.22984 9.67166 6.28466 9.6045 6.28466C9.58662 6.28466 9.56872 6.28071 9.55078 6.27291L8.75 5.90352L7.94906 6.27156C7.93118 6.27936 7.91328 6.28331 7.89534 6.28331C7.82828 6.28331 7.76559 6.22846 7.779 6.16193L7.93116 5.38264L7.28678 4.83057C7.21519 4.77189 7.25547 4.67003 7.34947 4.65827L8.24447 4.54474L8.64728 3.83599C8.66563 3.79805 8.70938 3.77891 8.75 3.77891C8.79062 3.77891 8.83503 3.79851 8.85297 3.83764L9.25578 4.54639L10.15 4.65937ZM6.75 1.96875C7.48938 1.96875 8.20656 2.15887 8.82375 2.51809C8.92434 2.57663 8.96244 2.68983 8.91456 2.78726C8.86622 2.88425 8.74416 2.93934 8.62794 2.91287C8.4 2.86562 8.19375 2.84375 8 2.84375C6.48438 2.84375 5.25 3.92383 5.25 5.25C5.25 6.57617 6.48438 7.65625 8 7.65625C8.19481 7.65625 8.40031 7.63361 8.62781 7.58704C8.74403 7.56055 8.86609 7.61567 8.91444 7.71266C8.96228 7.81006 8.9242 7.92329 8.82362 7.98183C8.20625 8.33984 7.49062 8.53125 6.75 8.53125C4.68125 8.53125 3 7.06016 3 5.25C3 3.43984 4.68125 1.96875 6.75 1.96875ZM11 12.25H2V10.5H11C11.5522 10.5 12 10.8918 12 11.375C12 11.859 11.5531 12.25 11 12.25Z" fill="white"/>
</g>
<defs>
<clipPath id="clip0_2434_1964">
<rect width="14" height="14" fill="white"/>
</clipPath>
</defs>
</svg>
