<svg width="178" height="183" viewBox="0 0 178 183" fill="none" xmlns="http://www.w3.org/2000/svg">
<g id="Mask Group">
<mask id="mask0_2147_10053" style="mask-type:alpha" maskUnits="userSpaceOnUse" x="0" y="0" width="178" height="183">
<rect id="Rectangle 33" x="177.793" y="183" width="177.793" height="183" transform="rotate(180 177.793 183)" fill="#C4C4C4"/>
</mask>
<g mask="url(#mask0_2147_10053)">
<g id="Group 3">
<g id="Accent">
<path id="Vector 9" d="M95.916 10.9186L79.9878 -2.35491L79.9878 -15.2492L79.9878 -17.4992L77.7378 -17.4992L64.8434 -17.4992L51.5699 -33.4275L49.8414 -35.5017L48.1129 -33.4275L34.8394 -17.4992L21.9451 -17.4992L19.6951 -17.4992L19.6951 -15.2492L19.6951 -2.3549L3.76687 10.9186L1.58117 12.74L3.85729 14.4471L19.6951 26.3255L19.6951 40.5435L19.6951 42.7935L21.9451 42.7935L34.8394 42.7935L48.1129 58.7217L49.8414 60.7959L51.5699 58.7217L64.8435 42.7934L77.7378 42.7934L79.9878 42.7934L79.9878 40.5434L79.9878 27.6491L95.916 14.3756L97.9902 12.6471L95.916 10.9186Z" stroke="white" stroke-opacity="0.1" stroke-width="4.5"/>
<path id="Vector 10" d="M60.3027 33.5697L70.7638 33.5697L70.7638 23.1086L83.3171 12.6474L70.7638 2.18631L70.7638 -8.27482L60.3026 -8.27482L49.8415 -20.8282L39.3804 -8.27482L28.9193 -8.27482L28.9193 2.18631L16.3659 12.6474L28.9193 22.0625L28.9193 33.5697L39.3804 33.5697L49.8415 46.123L60.3027 33.5697Z" stroke="white" stroke-opacity="0.1" stroke-width="4.5"/>
<circle id="Ellipse 2" cx="50.3994" cy="13.2049" r="3.90549" transform="rotate(180 50.3994 13.2049)" fill="#22BBA7" fill-opacity="0.05"/>
<circle id="Ellipse 3" cx="50.3995" cy="13.2051" r="16.1982" transform="rotate(180 50.3995 13.2051)" stroke="white" stroke-opacity="0.1" stroke-width="4.5"/>
</g>
<g id="Accent_2">
<path id="Vector 9_2" d="M95.916 122.504L79.9878 109.23L79.9878 96.3357L79.9878 94.0857L77.7378 94.0857L64.8434 94.0857L51.5699 78.1575L49.8414 76.0833L48.1129 78.1575L34.8394 94.0857L21.9451 94.0857L19.6951 94.0857L19.6951 96.3357L19.6951 109.23L3.76687 122.504L1.58117 124.325L3.85729 126.032L19.6951 137.91L19.6951 152.128L19.6951 154.378L21.9451 154.378L34.8394 154.378L48.1129 170.307L49.8414 172.381L51.5699 170.307L64.8435 154.378L77.7378 154.378L79.9878 154.378L79.9878 152.128L79.9878 139.234L95.916 125.961L97.9902 124.232L95.916 122.504Z" stroke="white" stroke-opacity="0.1" stroke-width="4.5"/>
<path id="Vector 10_2" d="M60.3024 145.155L70.7635 145.155L70.7635 134.694L83.3169 124.232L70.7635 113.771L70.7635 103.31L60.3024 103.31L49.8413 90.7568L39.3801 103.31L28.919 103.31L28.919 113.771L16.3657 124.232L28.919 133.647L28.919 145.155L39.3802 145.155L49.8413 157.708L60.3024 145.155Z" stroke="white" stroke-opacity="0.1" stroke-width="4.5"/>
<circle id="Ellipse 2_2" cx="50.3994" cy="124.79" r="3.90549" transform="rotate(180 50.3994 124.79)" fill="#22BBA7" fill-opacity="0.05"/>
<circle id="Ellipse 3_2" cx="50.3992" cy="124.79" r="16.1982" transform="rotate(180 50.3992 124.79)" stroke="white" stroke-opacity="0.1" stroke-width="4.5"/>
</g>
<g id="Accent_3">
<path id="Vector 9_3" d="M174.026 66.7106L158.098 53.4371L158.098 40.5428L158.098 38.2928L155.848 38.2928L142.953 38.2928L129.68 22.3645L127.951 20.2903L126.223 22.3645L112.949 38.2928L100.055 38.2928L97.805 38.2928L97.805 40.5428L97.805 53.4371L81.8767 66.7106L79.691 68.532L81.9672 70.2391L97.805 82.1175L97.805 96.3354L97.805 98.5854L100.055 98.5854L112.949 98.5854L126.223 114.514L127.951 116.588L129.68 114.514L142.953 98.5854L155.848 98.5854L158.098 98.5854L158.098 96.3354L158.098 83.4411L174.026 70.1676L176.1 68.4391L174.026 66.7106Z" stroke="white" stroke-opacity="0.1" stroke-width="4.5"/>
<path id="Vector 10_3" d="M138.413 89.3617L148.874 89.3617L148.874 78.9006L161.427 68.4394L148.874 57.9783L148.874 47.5172L138.413 47.5172L127.951 34.9638L117.49 47.5172L107.029 47.5172L107.029 57.9783L94.4758 68.4394L107.029 77.8544L107.029 89.3617L117.49 89.3617L127.951 101.915L138.413 89.3617Z" stroke="white" stroke-opacity="0.1" stroke-width="4.5"/>
<circle id="Ellipse 2_3" cx="128.509" cy="68.9969" r="3.90549" transform="rotate(180 128.509 68.9969)" fill="#22BBA7" fill-opacity="0.05"/>
<circle id="Ellipse 3_3" cx="128.509" cy="68.9971" r="16.1982" transform="rotate(180 128.509 68.9971)" stroke="white" stroke-opacity="0.1" stroke-width="4.5"/>
</g>
</g>
</g>
</g>
</svg>
