<svg width="185" height="191" viewBox="0 0 185 191" fill="none" xmlns="http://www.w3.org/2000/svg">
<g id="Mask Group">
<mask id="mask0_2147_10071" style="mask-type:alpha" maskUnits="userSpaceOnUse" x="0" y="0" width="185" height="191">
<rect id="Rectangle 33" width="185" height="190.418" fill="#C4C4C4"/>
</mask>
<g mask="url(#mask0_2147_10071)">
<g id="Group 3">
<g id="Accent">
<path id="Vector 9" d="M85.2544 178.987L101.861 192.826V206.286V208.536H104.111H117.571L131.41 225.143L133.138 227.217L134.867 225.143L148.706 208.536H162.166H164.416V206.286V192.826L181.022 178.987L183.208 177.166L180.932 175.459L164.416 163.072V148.232V145.982H162.166H148.706L134.867 129.375L133.138 127.301L131.41 129.375L117.571 145.982H104.111H101.861V148.232V161.692L85.2544 175.53L83.1802 177.259L85.2544 178.987Z" stroke="white" stroke-opacity="0.1" stroke-width="4.5"/>
<path id="Vector 10" d="M122.253 155.489H111.368V166.374L98.3057 177.259L111.368 188.145V199.03H122.253L133.138 212.092L144.024 199.03H154.909V188.145L167.971 177.259L154.909 167.463V155.489H144.024L133.138 142.427L122.253 155.489Z" stroke="white" stroke-opacity="0.1" stroke-width="4.5"/>
<circle id="Ellipse 2" cx="132.558" cy="176.678" r="4.06381" fill="#22BBA7" fill-opacity="0.05"/>
<circle id="Ellipse 3" cx="132.558" cy="176.679" r="16.7636" stroke="white" stroke-opacity="0.1" stroke-width="4.5"/>
</g>
<g id="Accent_2">
<path id="Vector 9_2" d="M85.2544 62.879L101.861 76.718V90.1777V92.4277H104.111H117.571L131.41 109.034L133.138 111.109L134.867 109.034L148.706 92.4277H162.166H164.416V90.1777V76.718L181.022 62.879L183.208 61.0576L180.932 59.3505L164.416 46.9633V32.1234V29.8734H162.166H148.706L134.867 13.2666L133.138 11.1924L131.41 13.2666L117.571 29.8734H104.111H101.861V32.1234V45.5831L85.2544 59.4221L83.1802 61.1505L85.2544 62.879Z" stroke="white" stroke-opacity="0.1" stroke-width="4.5"/>
<path id="Vector 10_2" d="M122.253 39.3806H111.368V50.2658L98.3057 61.151L111.368 72.0362V82.9214H122.253L133.138 95.9836L144.024 82.9214H154.909V72.0362L167.971 61.151L154.909 51.3543V39.3806H144.024L133.138 26.3184L122.253 39.3806Z" stroke="white" stroke-opacity="0.1" stroke-width="4.5"/>
<circle id="Ellipse 2_2" cx="132.558" cy="60.5697" r="4.06381" fill="#22BBA7" fill-opacity="0.05"/>
<circle id="Ellipse 3_2" cx="132.558" cy="60.5702" r="16.7636" stroke="white" stroke-opacity="0.1" stroke-width="4.5"/>
</g>
<g id="Accent_3">
<path id="Vector 9_3" d="M3.97804 120.934L20.5848 134.773V148.232V150.482H22.8348H36.2945L50.1335 167.089L51.862 169.163L53.5905 167.089L67.4294 150.482H80.8892H83.1392V148.232V134.773L99.7459 120.934L101.932 119.112L99.6555 117.405L83.1392 105.018V90.178V87.928H80.8892H67.4294L53.5905 71.3213L51.862 69.2471L50.1335 71.3213L36.2945 87.928H22.8348H20.5848V90.178V103.638L3.97804 117.477L1.90384 119.205L3.97804 120.934Z" stroke="white" stroke-opacity="0.1" stroke-width="4.5"/>
<path id="Vector 10_3" d="M40.9767 97.4343H30.0915V108.32L17.0293 119.205L30.0915 130.09V140.975H40.9767L51.8619 154.037L62.7471 140.975H73.6323V130.09L86.6946 119.205L73.6323 109.408V97.4343H62.7471L51.8619 84.3721L40.9767 97.4343Z" stroke="white" stroke-opacity="0.1" stroke-width="4.5"/>
<circle id="Ellipse 2_3" cx="51.2816" cy="118.624" r="4.06381" fill="#22BBA7" fill-opacity="0.05"/>
<circle id="Ellipse 3_3" cx="51.2817" cy="118.625" r="16.7636" stroke="white" stroke-opacity="0.1" stroke-width="4.5"/>
</g>
</g>
</g>
</g>
</svg>
