<svg width="25" height="30" viewBox="0 0 25 30" xmlns="http://www.w3.org/2000/svg">
<path d="M9.21875 1.875H15.7812C16.0713 1.875 16.3495 1.77623 16.5546 1.60041C16.7598 1.4246 16.875 1.18614 16.875 0.9375C16.875 0.68886 16.7598 0.450403 16.5546 0.274587C16.3495 0.0987721 16.0713 0 15.7812 0L9.21875 0C8.92867 0 8.65047 0.0987721 8.44535 0.274587C8.24023 0.450403 8.125 0.68886 8.125 0.9375C8.125 1.18614 8.24023 1.4246 8.44535 1.60041C8.65047 1.77623 8.92867 1.875 9.21875 1.875Z" fill="currentColor" />
<path d="M12.5 4.375C10.0277 4.375 7.61099 5.10811 5.55538 6.48163C3.49976 7.85515 1.89761 9.80738 0.951511 12.0915C0.00541607 14.3755 -0.242126 16.8889 0.24019 19.3136C0.722505 21.7384 1.91301 23.9657 3.66117 25.7138C5.40933 27.462 7.63661 28.6525 10.0614 29.1348C12.4861 29.6171 14.9995 29.3696 17.2835 28.4235C19.5676 27.4774 21.5199 25.8752 22.8934 23.8196C24.2669 21.764 25 19.3473 25 16.875C24.9931 13.5619 23.674 10.3865 21.3312 8.04377C18.9885 5.70105 15.8131 4.38188 12.5 4.375ZM18.3984 12.4609L13.2422 17.6172C13.0431 17.8097 12.777 17.9173 12.5 17.9173C12.223 17.9173 11.9569 17.8097 11.7578 17.6172C11.5622 17.4197 11.4525 17.153 11.4525 16.875C11.4525 16.597 11.5622 16.3303 11.7578 16.1328L16.9141 10.9766C17.0075 10.8628 17.1236 10.7698 17.2551 10.7036C17.3867 10.6374 17.5306 10.5995 17.6776 10.5923C17.8246 10.585 17.9716 10.6087 18.1089 10.6617C18.2463 10.7146 18.371 10.7958 18.4751 10.8999C18.5792 11.004 18.6604 11.1287 18.7133 11.2661C18.7663 11.4034 18.79 11.5504 18.7827 11.6974C18.7755 11.8444 18.7376 11.9883 18.6714 12.1199C18.6052 12.2514 18.5122 12.3675 18.3984 12.4609Z" fill="currentColor" />
</svg>
