<svg width="60" height="75" viewBox="0 0 60 75" fill="none" xmlns="http://www.w3.org/2000/svg">
<g id="&#240;&#159;&#166;&#134; icon &#34;document&#34;">
<path id="Vector" d="M0 7.5C0 5.51088 0.790176 3.60322 2.1967 2.1967C3.60322 0.790176 5.51088 0 7.5 0H37.5C38.4945 0.00021239 39.4482 0.39544 40.1512 1.09875L58.9013 19.8488C59.6046 20.5519 59.9998 21.5055 60 22.5V67.5C60 69.4891 59.2098 71.3968 57.8033 72.8033C56.3968 74.2098 54.4891 75 52.5 75H7.5C5.51088 75 3.60322 74.2098 2.1967 72.8033C0.790176 71.3968 0 69.4891 0 67.5V7.5ZM50.9475 22.5L37.5 9.0525V22.5H50.9475ZM30 7.5H7.5V67.5H52.5V30H33.75C32.7554 30 31.8016 29.6049 31.0984 28.9017C30.3951 28.1984 30 27.2446 30 26.25V7.5ZM15 41.25C15 40.2554 15.3951 39.3016 16.0984 38.5984C16.8016 37.8951 17.7554 37.5 18.75 37.5H41.25C42.2446 37.5 43.1984 37.8951 43.9016 38.5984C44.6049 39.3016 45 40.2554 45 41.25C45 42.2446 44.6049 43.1984 43.9016 43.9017C43.1984 44.6049 42.2446 45 41.25 45H18.75C17.7554 45 16.8016 44.6049 16.0984 43.9017C15.3951 43.1984 15 42.2446 15 41.25ZM15 56.25C15 55.2554 15.3951 54.3016 16.0984 53.5984C16.8016 52.8951 17.7554 52.5 18.75 52.5H41.25C42.2446 52.5 43.1984 52.8951 43.9016 53.5984C44.6049 54.3016 45 55.2554 45 56.25C45 57.2446 44.6049 58.1984 43.9016 58.9017C43.1984 59.6049 42.2446 60 41.25 60H18.75C17.7554 60 16.8016 59.6049 16.0984 58.9017C15.3951 58.1984 15 57.2446 15 56.25Z" fill="#4D44B5"/>
</g>
</svg>
