<svg width="28" height="28" viewBox="0 0 28 28" xmlns="http://www.w3.org/2000/svg">
<path d="M10.2627 0.666992L9.41634 4.46647C8.93497 4.69811 8.47482 4.9649 8.03353 5.26595L4.31999 4.09668L0.583008 10.5706L3.39811 13.1488C3.28813 13.9651 3.33794 14.3675 3.39811 14.8519L0.583008 17.43L4.31999 23.904L8.03353 22.7347C8.47482 23.0357 8.93497 23.3025 9.41634 23.5342L10.2627 27.3337H17.7367L18.583 23.5342C19.0644 23.3025 19.5245 23.0357 19.9658 22.7347L23.6794 23.904L27.4163 17.43L24.6012 14.8519C24.6242 14.5685 24.6661 14.2849 24.6663 14.0003C24.6674 13.7072 24.6212 13.4111 24.6012 13.1488L27.4163 10.5706L23.6794 4.09668L19.9658 5.26595C19.5245 4.9649 19.0644 4.69811 18.583 4.46647L17.7367 0.666992H10.2627ZM12.4033 3.33366H15.596L16.2549 6.29199L16.9163 6.55241C17.6646 6.84544 18.364 7.24878 18.9919 7.75033L19.5492 8.19303L22.4398 7.28418L24.0361 10.0498L21.8018 12.0993L21.9085 12.8024C22.0342 13.58 22.0098 14.4749 21.9085 15.1982L21.8018 15.9014L24.0361 17.9508L22.4398 20.7165L19.5492 19.8076L18.9919 20.2503C18.364 20.7519 17.6646 21.1552 16.9163 21.4482L16.2549 21.7087L15.596 24.667H12.4033L11.7445 21.7087L11.083 21.4482C10.3348 21.1552 9.63533 20.7519 9.00749 20.2503L8.45019 19.8076L5.55957 20.7165L3.96322 17.9508L6.19759 15.9014L6.09082 15.1982C5.96059 14.405 5.98058 13.497 6.09082 12.8024L6.19759 12.0993L3.96322 10.0498L5.55957 7.28418L8.45019 8.19303L9.00749 7.75033C9.63533 7.24878 10.3348 6.84544 11.083 6.55241L11.7445 6.29199L12.4033 3.33366ZM13.9997 8.66699C11.0699 8.66699 8.66634 11.0706 8.66634 14.0003C8.66634 16.9301 11.0699 19.3337 13.9997 19.3337C16.9294 19.3337 19.333 16.9301 19.333 14.0003C19.333 11.0706 16.9294 8.66699 13.9997 8.66699ZM13.9997 11.3337C15.4882 11.3337 16.6663 12.5118 16.6663 14.0003C16.6663 15.4889 15.4882 16.667 13.9997 16.667C12.5111 16.667 11.333 15.4889 11.333 14.0003C11.333 12.5118 12.5111 11.3337 13.9997 11.3337Z" fill="#a098ae"/>
</svg>
