<svg width="28" height="27" viewBox="0 0 28 27" xmlns="http://www.w3.org/2000/svg">
<path d="M19.5865 0.143555H8.41317C3.55984 0.143555 0.666504 3.03689 0.666504 7.89022V19.0502C0.666504 23.9169 3.55984 26.8102 8.41317 26.8102H19.5732C24.4265 26.8102 27.3198 23.9169 27.3198 19.0636V7.89022C27.3332 3.03689 24.4398 0.143555 19.5865 0.143555ZM8.2265 4.81022C8.2265 4.26355 8.67984 3.81022 9.2265 3.81022C9.77317 3.81022 10.2265 4.26355 10.2265 4.81022V10.0102C10.2265 10.5569 9.77317 11.0102 9.2265 11.0102C8.67984 11.0102 8.2265 10.5569 8.2265 10.0102V4.81022ZM10.6969 19.3853C10.4257 19.5057 10.2265 19.7612 10.2265 20.058V22.1436C10.2265 22.6902 9.77317 23.1436 9.2265 23.1436C8.67984 23.1436 8.2265 22.6902 8.2265 22.1436V20.058C8.2265 19.7612 8.0273 19.5057 7.75614 19.385C6.4835 18.8188 5.59984 17.5542 5.59984 16.0769C5.59984 14.0769 7.2265 12.4369 9.2265 12.4369C11.2265 12.4369 12.8665 14.0636 12.8665 16.0769C12.8665 17.5545 11.972 18.819 10.6969 19.3853ZM19.7732 22.1436C19.7732 22.6902 19.3198 23.1436 18.7732 23.1436C18.2265 23.1436 17.7732 22.6902 17.7732 22.1436V16.9436C17.7732 16.3969 18.2265 15.9436 18.7732 15.9436C19.3198 15.9436 19.7732 16.3969 19.7732 16.9436V22.1436ZM18.7732 14.5036C16.7732 14.5036 15.1332 12.8769 15.1332 10.8636C15.1332 9.38602 16.0277 8.12145 17.3028 7.55519C17.574 7.43474 17.7732 7.1793 17.7732 6.8825V4.81022C17.7732 4.26355 18.2265 3.81022 18.7732 3.81022C19.3198 3.81022 19.7732 4.26355 19.7732 4.81022V6.89583C19.7732 7.19263 19.9724 7.44802 20.2436 7.56869C21.5161 8.13502 22.3998 9.39949 22.3998 10.8769C22.3998 12.8769 20.7732 14.5036 18.7732 14.5036Z" fill="currentColor"/>
</svg>
