<svg width="24" height="33" viewBox="0 0 24 33" xmlns="http://www.w3.org/2000/svg">
<path d="M18.8778 24.1179C17.2242 23.5104 15.796 22.9859 15.6407 21.4913C15.5689 20.8023 15.6273 19.9924 15.8096 19.1471C16.3811 18.5347 16.8546 17.6511 17.3398 16.2914C18.306 15.9192 18.9217 15.0919 19.2217 13.7638C19.3755 13.0835 19.1555 12.3842 18.6182 11.8384C18.6665 11.013 18.6242 10.9679 18.5931 10.9349L18.5592 10.9014H5.46872V11.8335C4.85016 12.4032 4.6181 13.0524 4.77885 13.7638C5.07847 15.0914 5.69435 15.9188 6.66135 16.2914C7.14647 17.6511 7.6196 18.5342 8.19035 19.1461C8.3191 19.741 8.45022 20.6217 8.35972 21.4913C8.20447 22.9859 6.77622 23.5104 5.12253 24.1179C2.85253 24.9516 0.279785 25.8968 0.279785 29.658C0.279785 30.8284 3.91597 32.4763 12.0002 32.4763C20.0843 32.4763 23.7205 30.8284 23.7205 29.658C23.7205 25.8969 21.1478 24.9516 18.8778 24.1179ZM10.6194 30.7624L8.68897 22.9213L11.0308 23.8962L10.887 25.1874L11.2977 25.1782L10.6194 30.7624ZM13.319 25.1874L13.1751 23.8962L15.517 22.9213L13.5865 30.7624L12.9082 25.1782L13.319 25.1874Z" fill="currentColor"/>
<path d="M1.69308 5.65025L5.12208 7.15838V9.43319H19.0383V7.15838L20.438 6.54263V9.74475C20.1411 9.79181 19.9137 10.0403 19.9137 10.3382C19.9137 10.5973 20.085 10.8219 20.3327 10.904L19.9341 13.4176C19.9078 13.584 19.9553 13.7524 20.0641 13.8796C20.1728 14.0072 20.3316 14.0804 20.4999 14.0804H21.5494C21.7176 14.0804 21.8765 14.0072 21.9849 13.8796C22.094 13.7524 22.1415 13.5841 22.1152 13.4176L21.7168 10.904C21.9649 10.822 22.1365 10.5973 22.1365 10.3382C22.1365 10.0403 21.9088 9.79181 21.6116 9.74475V6.02681L22.467 5.65075C22.6355 5.5775 22.7445 5.41394 22.7445 5.23488C22.7445 5.05675 22.6358 4.89375 22.4674 4.8195L13.0586 0.681813C12.7496 0.545438 12.4204 0.476562 12.08 0.476562C11.7396 0.476562 11.4105 0.545438 11.1017 0.681813L1.69295 4.8195C1.5247 4.89375 1.41602 5.05675 1.41602 5.23488C1.41595 5.41444 1.52489 5.57744 1.69308 5.65025Z" fill="currentColor"/>
</svg>
