<svg width="32" height="33" viewBox="0 0 32 33" xmlns="http://www.w3.org/2000/svg">
<path d="M27 5.47656H5C4.46957 5.47656 3.96086 5.68728 3.58579 6.06235C3.21071 6.43742 3 6.94613 3 7.47656V25.4766C3 26.007 3.21071 26.5157 3.58579 26.8908C3.96086 27.2658 4.46957 27.4766 5 27.4766H6.675C6.86436 27.4771 7.04987 27.4232 7.20944 27.3212C7.36901 27.2193 7.4959 27.0736 7.575 26.9016C8.06429 25.8776 8.83339 25.013 9.7934 24.4077C10.7534 23.8025 11.8651 23.4813 13 23.4813C14.1349 23.4813 15.2466 23.8025 16.2066 24.4077C17.1666 25.013 17.9357 25.8776 18.425 26.9016C18.5041 27.0736 18.631 27.2193 18.7906 27.3212C18.9501 27.4232 19.1356 27.4771 19.325 27.4766H27C27.5304 27.4766 28.0391 27.2658 28.4142 26.8908C28.7893 26.5157 29 26.007 29 25.4766V7.47656C29 6.94613 28.7893 6.43742 28.4142 6.06235C28.0391 5.68728 27.5304 5.47656 27 5.47656ZM13 21.4766C12.2089 21.4766 11.4355 21.242 10.7777 20.8024C10.1199 20.3629 9.60723 19.7382 9.30448 19.0073C9.00173 18.2764 8.92252 17.4721 9.07686 16.6962C9.2312 15.9203 9.61216 15.2075 10.1716 14.6481C10.731 14.0887 11.4437 13.7078 12.2196 13.5534C12.9956 13.3991 13.7998 13.4783 14.5307 13.781C15.2616 14.0838 15.8864 14.5965 16.3259 15.2543C16.7654 15.9121 17 16.6854 17 17.4766C16.9967 18.5364 16.5742 19.5519 15.8248 20.3013C15.0754 21.0508 14.0599 21.4733 13 21.4766ZM27 25.4766H19.925C19.4917 24.7252 18.9386 24.0496 18.2875 23.4766H24C24.2652 23.4766 24.5196 23.3712 24.7071 23.1837C24.8946 22.9961 25 22.7418 25 22.4766V10.4766C25 10.2113 24.8946 9.95699 24.7071 9.76946C24.5196 9.58192 24.2652 9.47656 24 9.47656H8C7.73478 9.47656 7.48043 9.58192 7.29289 9.76946C7.10536 9.95699 7 10.2113 7 10.4766V22.4766C7.00127 22.6973 7.07552 22.9114 7.21118 23.0855C7.34684 23.2596 7.53629 23.3839 7.75 23.4391C7.08311 24.0212 6.51714 24.7097 6.075 25.4766H5V7.47656H27V25.4766Z" fill="currentColor"/>
</svg>
