<svg width="26" height="29" viewBox="0 0 26 29" xmlns="http://www.w3.org/2000/svg">
<path d="M7.02799 3.98138C7.06986 3.98971 7.10803 4.00609 7.142 4.02774C7.40789 4.1275 7.70654 4.18226 8.02869 4.18226L14.9952 4.17507C15.5011 4.17507 15.8365 4.00111 16.0509 3.6274C16.1124 3.5203 16.2247 3.45977 16.3405 3.45977C16.3923 3.45977 16.4448 3.47188 16.4938 3.49723L18.5602 4.56808V2.87977L15.9168 1.27479C15.8469 1.23235 15.7951 1.16584 15.771 1.08779C15.7549 1.03553 15.7278 0.981976 15.6965 0.920024L15.6809 0.889048L15.6306 0.799609C15.3359 0.274227 15.1623 0 14.738 0H5.90894V2.30569C5.90894 3.06634 6.34545 3.68059 7.02799 3.98138Z" fill="currentColor" />
<path d="M14.892 21.3002L18.0626 17.337L16.7786 15.8115L13.3259 20.2527L14.892 21.3002Z" fill="currentColor" />
<path d="M14.9956 4.84242L8.0291 4.84961C7.75167 4.84961 7.48642 4.81558 7.23704 4.75284C7.21141 5.03063 7.21069 5.31774 7.21069 5.65335C7.21069 7.39072 7.81213 9.617 8.74276 11.325C9.53831 12.785 10.9152 14.5253 12.9571 14.5253C14.4769 14.5253 15.627 13.5436 16.3242 12.72C17.9536 10.7954 18.9098 7.65391 18.5887 5.33455L16.447 4.22461C16.1077 4.63485 15.6209 4.84242 14.9956 4.84242ZM11.0104 7.3403H9.67582C9.4916 7.3403 9.34213 7.1909 9.34213 7.00661C9.34213 6.82232 9.4916 6.67293 9.67582 6.67293H11.0104C11.1947 6.67293 11.344 6.82232 11.344 7.00661C11.344 7.1909 11.1947 7.3403 11.0104 7.3403ZM14.5963 11.2321C14.1367 11.7492 13.6204 12.0114 13.0617 12.0114C12.1317 12.0114 11.4566 11.2639 11.4283 11.2321C11.3059 11.0944 11.3183 10.8835 11.456 10.7611C11.5936 10.6389 11.8038 10.651 11.9263 10.788C11.9346 10.7972 12.4373 11.3441 13.0617 11.3441C13.063 11.3441 13.0642 11.3441 13.0655 11.3441C13.4239 11.3428 13.7711 11.156 14.0975 10.7888C14.2199 10.6511 14.4307 10.6386 14.5685 10.7611C14.7063 10.8835 14.7186 11.0944 14.5963 11.2321ZM16.6825 7.00661C16.6825 7.19083 16.5331 7.3403 16.3488 7.3403H15.0142C14.8299 7.3403 14.6805 7.1909 14.6805 7.00661C14.6805 6.82232 14.8299 6.67293 15.0142 6.67293H16.3488C16.5331 6.673 16.6825 6.82232 16.6825 7.00661Z" fill="currentColor" />
<path d="M8.38599 17.2447L10.665 21.2825L12.3675 20.2325L9.33393 15.8682L8.38599 17.2447Z" fill="currentColor" />
<path d="M10.7201 22.0316C10.7029 22.0421 10.6848 22.0505 10.6664 22.0577C10.6612 22.0597 10.6561 22.0614 10.6509 22.0631C10.6349 22.0686 10.6186 22.0728 10.6019 22.0757C10.5988 22.0763 10.5958 22.0772 10.5927 22.0776C10.5769 22.0799 10.5608 22.0812 10.5449 22.0812C10.5413 22.0812 10.5378 22.0807 10.5343 22.0806C10.5298 22.0804 10.5253 22.08 10.5208 22.0797C10.5009 22.0782 10.4812 22.0757 10.4617 22.0706C10.3738 22.048 10.299 21.9905 10.2544 21.9116L7.82284 17.6035L0 19.2687V28.3313H4.67112V23.4601C4.67112 23.2758 4.82058 23.1264 5.0048 23.1264C5.18909 23.1264 5.33849 23.2758 5.33849 23.4601V28.3313H10.0115C10.0132 28.3117 10.016 28.2919 10.0214 28.2722L11.9263 21.2879L10.7201 22.0316Z" fill="currentColor" />
<path d="M12.8442 20.7334L12.8353 20.7275L12.6331 20.8523C12.6765 20.9269 12.6914 21.018 12.6669 21.1079L10.6968 28.3318H14.6606L12.6904 21.1079C12.65 20.9592 12.7173 20.8078 12.8442 20.7334Z" fill="currentColor" />
<path d="M18.6092 17.7217L15.2217 21.956C15.2095 21.9712 15.196 21.9846 15.1818 21.9971C15.179 21.9996 15.1764 22.002 15.1736 22.0043C15.1597 22.0159 15.1451 22.0262 15.1299 22.0352C15.1268 22.037 15.1237 22.0385 15.1206 22.0402C15.1053 22.0484 15.0897 22.0558 15.0735 22.0615C15.0725 22.062 15.0714 22.0625 15.0701 22.063C15.0533 22.0688 15.0359 22.0728 15.0184 22.0758C15.0146 22.0766 15.0109 22.0773 15.0071 22.0777C14.9917 22.0798 14.9763 22.0813 14.961 22.0813C14.9593 22.0813 14.9575 22.081 14.9558 22.0809C14.9505 22.0808 14.9452 22.0801 14.9398 22.0798C14.9264 22.0789 14.9133 22.0775 14.9 22.075C14.8937 22.0738 14.8875 22.0724 14.8812 22.0709C14.8683 22.0677 14.8558 22.0636 14.8433 22.0589C14.8378 22.0568 14.8322 22.0549 14.8269 22.0526C14.8094 22.0449 14.7921 22.036 14.7756 22.0249L13.3772 21.0896L15.3361 28.2721C15.3414 28.2918 15.3443 28.3116 15.346 28.3313H20.0189V23.46C20.0189 23.2757 20.1683 23.1263 20.3526 23.1263C20.5369 23.1263 20.6863 23.2757 20.6863 23.46V28.3313H25.3574V19.9824L18.6092 17.7217Z" fill="currentColor" />
</svg>
