<svg width="6" height="24" viewBox="0 0 6 24" xmlns="http://www.w3.org/2000/svg">
<path d="M-4.14394e-07 12.0008C-4.06543e-07 12.3476 0.0683161 12.6911 0.201049 13.0115C0.333782 13.332 0.528331 13.6231 0.77359 13.8684C1.01885 14.1137 1.31001 14.3082 1.63046 14.4409C1.9509 14.5737 2.29435 14.642 2.6412 14.642C2.98805 14.642 3.3315 14.5737 3.65194 14.4409C3.97239 14.3082 4.26355 14.1137 4.50881 13.8684C4.75407 13.6231 4.94862 13.332 5.08135 13.0115C5.21408 12.6911 5.2824 12.3476 5.2824 12.0008C5.28224 11.3003 5.00382 10.6286 4.50839 10.1334C4.01295 9.63815 3.34109 9.36003 2.6406 9.36019C1.94011 9.36035 1.26837 9.63877 0.773165 10.1342C0.277956 10.6296 -0.000159554 11.3015 -4.14342e-07 12.002L-4.14394e-07 12.0008ZM-4.72188e-08 20.4008C-3.93669e-08 20.7476 0.0683165 21.0911 0.201049 21.4115C0.333782 21.732 0.528332 22.0231 0.77359 22.2684C1.01885 22.5137 1.31001 22.7082 1.63046 22.8409C1.9509 22.9737 2.29435 23.042 2.6412 23.042C2.98805 23.042 3.3315 22.9737 3.65194 22.8409C3.97239 22.7082 4.26355 22.5137 4.50881 22.2684C4.75407 22.0231 4.94862 21.732 5.08135 21.4115C5.21408 21.0911 5.2824 20.7476 5.2824 20.4008C5.28224 19.7003 5.00382 19.0286 4.50839 18.5334C4.01295 18.0381 3.34109 17.76 2.6406 17.7602C1.94011 17.7604 1.26837 18.0388 0.773165 18.5342C0.277956 19.0296 -0.000159187 19.7015 -4.71664e-08 20.402L-4.72188e-08 20.4008ZM-7.8157e-07 3.60079C-7.73718e-07 3.94764 0.0683158 4.29109 0.201049 4.61154C0.333781 4.93198 0.528331 5.22314 0.773589 5.4684C1.01885 5.71366 1.31001 5.90821 1.63046 6.04094C1.9509 6.17368 2.29435 6.24199 2.6412 6.24199C2.98805 6.24199 3.3315 6.17368 3.65194 6.04094C3.97239 5.90821 4.26355 5.71366 4.50881 5.4684C4.75407 5.22314 4.94862 4.93198 5.08135 4.61154C5.21408 4.29109 5.2824 3.94764 5.2824 3.60079C5.28224 2.9003 5.00382 2.22857 4.50839 1.73336C4.01295 1.23815 3.34109 0.960033 2.6406 0.960192C1.94011 0.960352 1.26837 1.23877 0.773164 1.73421C0.277956 2.22964 -0.000159921 2.9015 -7.81518e-07 3.60199L-7.8157e-07 3.60079Z" fill="#currentColor"/>
</svg>
