<svg width="30" height="27" viewBox="0 0 30 27"  xmlns="http://www.w3.org/2000/svg">
<path d="M15.0002 12.8102C16.8668 12.8102 18.3335 11.3436 18.3335 9.47689C18.3335 7.61022 16.8668 6.14355 15.0002 6.14355C13.1335 6.14355 11.6668 7.61022 11.6668 9.47689C11.6668 11.3436 13.1335 12.8102 15.0002 12.8102ZM15.0002 0.143555C20.2002 0.143555 24.3335 4.27689 24.3335 9.47689C24.3335 16.4102 15.0002 26.8102 15.0002 26.8102C15.0002 26.8102 5.66683 16.4102 5.66683 9.47689C5.66683 4.27689 9.80016 0.143555 15.0002 0.143555ZM3.00016 9.47689C3.00016 15.4769 9.80016 23.7436 11.0002 25.2102L9.66683 26.8102C9.66683 26.8102 0.333496 16.4102 0.333496 9.47689C0.333496 5.21022 3.1335 1.74355 7.00016 0.543555C4.60016 2.67689 3.00016 5.87689 3.00016 9.47689ZM23.0002 0.543555C26.8668 1.74355 29.6668 5.21022 29.6668 9.47689C29.6668 16.4102 20.3335 26.8102 20.3335 26.8102L19.0002 25.2102C20.2002 23.7436 27.0002 15.4769 27.0002 9.47689C27.0002 5.87689 25.4002 2.67689 23.0002 0.543555Z" fill="currentColor"/>
</svg>
