<svg width="173" height="55" viewBox="0 0 173 55" fill="none" xmlns="http://www.w3.org/2000/svg">
<path d="M81.964 36.4881H72.532L71.02 40.9521H64.576L73.72 15.6801H80.848L89.992 40.9521H83.476L81.964 36.4881ZM80.38 31.7361L77.248 22.4841L74.152 31.7361H80.38ZM101.919 41.2041C100.071 41.2041 98.415 40.9041 96.951 40.3041C95.487 39.7041 94.311 38.8161 93.423 37.6401C92.559 36.4641 92.103 35.0481 92.055 33.3921H98.607C98.703 34.3281 99.027 35.0481 99.579 35.5521C100.131 36.0321 100.851 36.2721 101.739 36.2721C102.651 36.2721 103.371 36.0681 103.899 35.6601C104.427 35.2281 104.691 34.6401 104.691 33.8961C104.691 33.2721 104.475 32.7561 104.043 32.3481C103.635 31.9401 103.119 31.6041 102.495 31.3401C101.895 31.0761 101.031 30.7761 99.903 30.4401C98.271 29.9361 96.939 29.4321 95.907 28.9281C94.875 28.4241 93.987 27.6801 93.243 26.6961C92.499 25.7121 92.127 24.4281 92.127 22.8441C92.127 20.4921 92.979 18.6561 94.683 17.3361C96.387 15.9921 98.607 15.3201 101.343 15.3201C104.127 15.3201 106.371 15.9921 108.075 17.3361C109.779 18.6561 110.691 20.5041 110.811 22.8801H104.151C104.103 22.0641 103.803 21.4281 103.251 20.9721C102.699 20.4921 101.991 20.2521 101.127 20.2521C100.383 20.2521 99.783 20.4561 99.327 20.8641C98.871 21.2481 98.643 21.8121 98.643 22.5561C98.643 23.3721 99.027 24.0081 99.795 24.4641C100.563 24.9201 101.763 25.4121 103.395 25.9401C105.027 26.4921 106.347 27.0201 107.355 27.5241C108.387 28.0281 109.275 28.7601 110.019 29.7201C110.763 30.6801 111.135 31.9161 111.135 33.4281C111.135 34.8681 110.763 36.1761 110.019 37.3521C109.299 38.5281 108.243 39.4641 106.851 40.1601C105.459 40.8561 103.815 41.2041 101.919 41.2041ZM149.699 15.6801L143.111 40.9521H135.659L131.627 24.3201L127.451 40.9521H119.999L113.591 15.6801H120.179L123.815 34.0761L128.315 15.6801H135.083L139.403 34.0761L143.075 15.6801H149.699ZM161.931 41.2041C160.083 41.2041 158.427 40.9041 156.963 40.3041C155.499 39.7041 154.323 38.8161 153.435 37.6401C152.571 36.4641 152.115 35.0481 152.067 33.3921H158.619C158.715 34.3281 159.039 35.0481 159.591 35.5521C160.143 36.0321 160.863 36.2721 161.751 36.2721C162.663 36.2721 163.383 36.0681 163.911 35.6601C164.439 35.2281 164.703 34.6401 164.703 33.8961C164.703 33.2721 164.487 32.7561 164.055 32.3481C163.647 31.9401 163.131 31.6041 162.507 31.3401C161.907 31.0761 161.043 30.7761 159.915 30.4401C158.283 29.9361 156.951 29.4321 155.919 28.9281C154.887 28.4241 153.999 27.6801 153.255 26.6961C152.511 25.7121 152.139 24.4281 152.139 22.8441C152.139 20.4921 152.991 18.6561 154.695 17.3361C156.399 15.9921 158.619 15.3201 161.355 15.3201C164.139 15.3201 166.383 15.9921 168.087 17.3361C169.791 18.6561 170.703 20.5041 170.823 22.8801H164.163C164.115 22.0641 163.815 21.4281 163.263 20.9721C162.711 20.4921 162.003 20.2521 161.139 20.2521C160.395 20.2521 159.795 20.4561 159.339 20.8641C158.883 21.2481 158.655 21.8121 158.655 22.5561C158.655 23.3721 159.039 24.0081 159.807 24.4641C160.575 24.9201 161.775 25.4121 163.407 25.9401C165.039 26.4921 166.359 27.0201 167.367 27.5241C168.399 28.0281 169.287 28.7601 170.031 29.7201C170.775 30.6801 171.147 31.9161 171.147 33.4281C171.147 34.8681 170.775 36.1761 170.031 37.3521C169.311 38.5281 168.255 39.4641 166.863 40.1601C165.471 40.8561 163.827 41.2041 161.931 41.2041Z" fill="white"/>
<rect y="3.80957" width="48" height="45.7143" rx="16" fill="#4CBC9A"/>
<path d="M28.964 36.4881H19.532L18.02 40.9521H11.576L20.72 15.6801H27.848L36.992 40.9521H30.476L28.964 36.4881ZM27.38 31.7361L24.248 22.4841L21.152 31.7361H27.38Z" fill="white"/>
</svg>
