<svg width="60" height="60" viewBox="0 0 60 60" fill="none" xmlns="http://www.w3.org/2000/svg">
<circle cx="30" cy="30" r="29.5" stroke="#DBDBDB"/>
<g clip-path="url(#clip0_1871_8613)">
<path d="M37.0556 22.4062C36.9473 22.5137 36.8612 22.6416 36.8025 22.7825C36.7438 22.9234 36.7136 23.0745 36.7136 23.2272C36.7136 23.3798 36.7438 23.5309 36.8025 23.6718C36.8612 23.8127 36.9473 23.9406 37.0556 24.0481L42.3744 29.3669H15.1562C14.8496 29.3669 14.5555 29.4887 14.3387 29.7055C14.1218 29.9223 14 30.2164 14 30.5231C14 30.8298 14.1218 31.1239 14.3387 31.3407C14.5555 31.5575 14.8496 31.6794 15.1562 31.6794H42.3513L37.0556 36.9634C36.8403 37.1801 36.7194 37.4731 36.7194 37.7786C36.7194 38.084 36.8403 38.3771 37.0556 38.5937C37.2723 38.8091 37.5653 38.93 37.8708 38.93C38.1762 38.93 38.4693 38.8091 38.6859 38.5937L46.0397 31.24C46.1387 31.145 46.2174 31.031 46.2712 30.9048C46.325 30.7787 46.3528 30.6429 46.3528 30.5058C46.3528 30.3686 46.325 30.2328 46.2712 30.1067C46.2174 29.9805 46.1387 29.8665 46.0397 29.7715L38.6975 22.4062C38.59 22.2979 38.4621 22.2118 38.3212 22.1531C38.1803 22.0944 38.0292 22.0642 37.8766 22.0642C37.7239 22.0642 37.5728 22.0944 37.4319 22.1531C37.291 22.2118 37.1631 22.2979 37.0556 22.4062Z" fill="#DBDBDB"/>
</g>
<defs>
<clipPath id="clip0_1871_8613">
<rect width="37" height="37" fill="white" transform="translate(17 12)"/>
</clipPath>
</defs>
</svg>
