<svg width="30" height="31" viewBox="0 0 30 31" xmlns="http://www.w3.org/2000/svg">
<path d="M19.5 11.5004C19.4934 10.3903 19.0767 9.32182 18.33 8.50036C18.9164 7.85527 19.3027 7.05375 19.4421 6.19321C19.5815 5.33267 19.4679 4.45017 19.1152 3.65296C18.7625 2.85574 18.1859 2.17814 17.4553 1.70249C16.7247 1.22684 15.8718 0.973633 15 0.973633C14.1282 0.973633 13.2753 1.22684 12.5447 1.70249C11.8141 2.17814 11.2375 2.85574 10.8848 3.65296C10.5321 4.45017 10.4185 5.33267 10.5579 6.19321C10.6973 7.05375 11.0837 7.85527 11.67 8.50036C10.9233 9.32182 10.5066 10.3903 10.5 11.5004V16.0004H19.5V11.5004Z" fill="currentColor" />
<path d="M9 26.5004C8.99339 25.3903 8.57669 24.3218 7.83 23.5004C8.41635 22.8553 8.8027 22.0537 8.9421 21.1932C9.0815 20.3327 8.96794 19.4502 8.61524 18.653C8.26253 17.8557 7.68586 17.1781 6.9553 16.7025C6.22474 16.2268 5.37176 15.9736 4.5 15.9736C3.62825 15.9736 2.77526 16.2268 2.04471 16.7025C1.31415 17.1781 0.737476 17.8557 0.384769 18.653C0.0320628 19.4502 -0.0814911 20.3327 0.0579075 21.1932C0.197306 22.0537 0.583655 22.8553 1.17 23.5004C0.423319 24.3218 0.00661842 25.3903 2.50563e-06 26.5004V31.0004H9V26.5004Z" fill="currentColor" />
<path d="M30 26.5004C29.9934 25.3903 29.5767 24.3218 28.83 23.5004C29.4163 22.8553 29.8027 22.0537 29.9421 21.1932C30.0815 20.3327 29.9679 19.4502 29.6152 18.653C29.2625 17.8557 28.6859 17.1781 27.9553 16.7025C27.2247 16.2268 26.3718 15.9736 25.5 15.9736C24.6282 15.9736 23.7753 16.2268 23.0447 16.7025C22.3142 17.1781 21.7375 17.8557 21.3848 18.653C21.0321 19.4502 20.9185 20.3327 21.0579 21.1932C21.1973 22.0537 21.5837 22.8553 22.17 23.5004C21.4233 24.3218 21.0066 25.3903 21 26.5004V31.0004H30V26.5004Z" fill="currentColor" />
<path d="M19.5 22H16.5V17.5H13.5V22H10.5V25H19.5V22Z" fill="currentColor" />
</svg>
