<svg width="12" height="15" viewBox="0 0 12 15" xmlns="http://www.w3.org/2000/svg">
<path d="M11.5385 15H0.461538C0.209231 15 0 14.7449 0 14.4373C0 14.1296 0.209231 13.8745 0.461538 13.8745H11.5385C11.7908 13.8745 12 14.1296 12 14.4373C12 14.7449 11.7908 15 11.5385 15ZM10.32 1.10581C9.12615 -0.349786 7.95692 -0.387301 6.73231 1.10581L5.98769 2.01368C5.92615 2.08871 5.90154 2.20876 5.92615 2.3138C6.16151 3.29849 6.59673 4.19492 7.19156 4.92016C7.78639 5.6454 8.52161 6.17604 9.32923 6.463C9.37284 6.48042 9.41958 6.48262 9.46416 6.46936C9.50874 6.4561 9.5494 6.42791 9.58154 6.38797L10.32 5.4801C10.9292 4.7448 11.2246 4.03201 11.2246 3.31171C11.2308 2.56891 10.9354 1.84861 10.32 1.10581V1.10581ZM8.22154 7.14428C8.04308 7.03924 7.87077 6.9342 7.70462 6.81415C7.56965 6.71612 7.43824 6.61098 7.31077 6.49902C7.20615 6.41649 7.08308 6.29644 6.96615 6.17639C6.92849 6.14291 6.89347 6.10523 6.86154 6.06384C6.65846 5.85375 6.43077 5.58364 6.22769 5.28352C6.20923 5.26851 6.17846 5.21599 6.13539 5.14847C6.07385 5.05843 5.96923 4.90837 5.87692 4.7358C5.7892 4.59468 5.70904 4.44681 5.63692 4.29312C5.53846 4.09053 5.45231 3.88795 5.36615 3.67786C5.35334 3.64426 5.34083 3.6105 5.32862 3.57657C5.23754 3.32672 4.96985 3.25394 4.81169 3.44677L1.28615 7.74528C1.20615 7.84282 1.13231 8.0304 1.11385 8.15795L0.781538 11.0316C0.72 11.5418 0.836923 12.022 1.09538 12.3447C1.31692 12.6073 1.62462 12.7498 1.95692 12.7498C2.03077 12.7498 2.10462 12.7423 2.17846 12.7273L4.54154 12.3222C4.65231 12.2996 4.80615 12.2096 4.88 12.1121L8.40123 7.81956C8.56123 7.62448 8.50031 7.29059 8.29292 7.1818C8.2691 7.16936 8.24531 7.15686 8.22154 7.14428V7.14428Z" fill="currentColor"/>
</svg>
