<svg width="28" height="29" viewBox="0 0 28 29" fill="none" xmlns="http://www.w3.org/2000/svg">
<g id="Icon">
<rect id="BG" y="0.359375" width="28" height="28" rx="4" fill="black"/>
<path id="Vector" fill-rule="evenodd" clip-rule="evenodd" d="M9.44344 8.71905C9.34364 8.47444 9.13644 8.3416 8.9308 8.40802L7.36054 8.91475C7.23488 8.95515 7.12702 9.06585 7.06251 9.22036C6.99799 9.37487 6.98265 9.55926 7.02006 9.73003L7.94239 13.9365L7.36054 14.1243C7.23488 14.1649 7.12702 14.2754 7.06251 14.4299C6.99799 14.5844 6.98265 14.7688 7.02006 14.9396L8.24838 20.5419C8.31972 20.8672 8.56154 21.0603 8.80111 20.983L10.3714 20.4763C10.497 20.4357 10.6049 20.325 10.6694 20.1707C10.717 20.0567 10.7378 19.9267 10.7306 19.7977C11.6976 19.794 13.6031 19.7666 15.0638 19.6212C16.0235 19.5255 16.8041 19.3503 17.087 19.1391C17.8035 18.6044 20.0799 16.4212 20.7439 15.0865C21.0419 14.4875 21.0476 13.9528 20.8926 13.6103C20.6987 13.1821 20.4709 12.9269 20.2077 12.7972C19.9572 12.6738 19.6636 12.6631 19.3063 12.7927C18.9903 12.9074 18.6036 13.15 18.1191 13.5013C18.0926 13.4059 18.0575 13.312 18.0126 13.2205C18.875 12.3844 19.9851 11.1714 20.5464 10.2406C20.764 9.87974 20.9056 9.54347 20.9622 9.27285C21.0345 8.92806 20.9986 8.63498 20.8926 8.40074C20.6987 7.97251 20.4709 7.71736 20.2077 7.58762C19.9572 7.46423 19.6636 7.45355 19.3063 7.58313C18.9903 7.69786 18.6036 7.94046 18.1191 8.29175C18.0551 8.0606 17.9393 7.83797 17.76 7.63825C17.6656 7.53313 17.4866 7.40989 17.2345 7.34703C16.8209 7.24377 16.1511 7.27009 15.4462 7.72387C15.1238 7.93132 14.8503 7.80112 14.5584 7.64011C14.2714 7.48188 13.9724 7.28263 13.6346 7.14236C12.8609 6.82095 11.9202 7.0812 11.0735 7.54969C10.4297 7.90578 9.84283 8.37102 9.44344 8.71905ZM8.05775 15.2242L8.71711 15.0114L9.67416 19.3764L9.01481 19.5892L8.05775 15.2242ZM16.8572 14.4638C16.8726 14.4487 16.889 14.4346 16.906 14.4219C17.0275 14.3311 17.1258 14.2308 17.1921 14.1192C17.2217 14.0693 17.2522 14.0252 17.248 13.9735C17.2345 13.8046 17.0461 13.8162 16.9491 13.8046C16.6617 13.7704 16.2605 13.8325 15.8402 14.1029C15.3358 14.4276 14.8937 14.3729 14.443 14.1655C14.1075 14.0111 13.7661 13.7537 13.3661 13.5875C12.7766 13.3426 12.0654 13.6002 11.4203 13.9571C10.7101 14.35 10.0764 14.8896 9.73464 15.2039L10.4591 18.5082C11.2798 18.5085 13.406 18.4927 14.9967 18.3343C15.7747 18.2569 16.4143 18.1749 16.6437 18.0038C17.2189 17.5745 18.8965 15.9981 19.7149 14.7899C19.8531 14.586 19.9871 14.2985 20.042 14.1759C19.9987 14.0981 19.9523 14.041 19.8942 14.0124C19.7163 13.9247 19.4993 14.0344 19.1965 14.2081C18.7511 14.4638 18.1883 14.8978 17.4577 15.4709C17.4229 15.5005 17.3868 15.5293 17.3494 15.5572C17.344 15.5612 17.3385 15.5651 17.333 15.5688C16.8958 15.9122 16.4007 16.302 15.8377 16.7307C15.5999 16.9119 15.2609 16.9849 14.8997 16.9639C14.4608 16.9382 13.9868 16.7872 13.7105 16.6784C13.4628 16.5808 13.319 16.2235 13.3896 15.8812C13.4601 15.5387 13.7186 15.34 13.9663 15.4376C14.1924 15.5267 14.5799 15.6538 14.9392 15.6748C15.1103 15.6849 15.2748 15.6864 15.3874 15.6007C15.9362 15.1828 16.4234 14.802 16.8572 14.4638ZM9.59374 13.7998L8.71711 9.80187L8.05775 10.0146L8.85319 13.6427L8.9308 13.6176C9.13644 13.5513 9.34364 13.684 9.44344 13.9286C9.49092 13.8873 9.5411 13.8442 9.59374 13.7998ZM16.8572 9.25427C16.8726 9.23909 16.889 9.22501 16.906 9.21231C17.0275 9.12159 17.1258 9.02126 17.1921 8.90964C17.2217 8.85978 17.2448 8.81582 17.248 8.76395C17.2586 8.59504 17.0461 8.60665 16.9491 8.59504C16.6617 8.56067 16.2605 8.62291 15.8402 8.89338C15.3358 9.21804 14.8937 9.16339 14.443 8.95593C14.1075 8.80157 13.7661 8.5441 13.3661 8.37783C12.7766 8.13306 12.0654 8.39068 11.4203 8.74754C10.7101 9.14047 10.0764 9.68002 9.73464 9.99431L10.4288 13.1604C10.6332 13.0198 10.85 12.883 11.0735 12.7593C11.9202 12.2908 12.8609 12.0305 13.6346 12.3519C13.9724 12.4922 14.2714 12.6914 14.5584 12.8497C14.8503 13.0107 15.1238 13.1409 15.4462 12.9334C16.0746 12.5289 16.6751 12.4642 17.091 12.5279C17.9125 11.778 19.2212 10.4233 19.8294 9.41466C19.9183 9.26727 20.0034 9.06709 20.0433 8.96847C19.9996 8.88966 19.9529 8.83176 19.8942 8.80281C19.7163 8.71518 19.4993 8.82479 19.1965 8.9985C18.4664 9.41776 17.4206 10.3159 15.8377 11.5212C15.5999 11.7023 15.2609 11.7754 14.8997 11.7543C14.4608 11.7285 13.9868 11.5775 13.7105 11.4688C13.4628 11.3711 13.319 11.014 13.3896 10.6716C13.4601 10.3292 13.7186 10.1304 13.9663 10.2279C14.1924 10.3171 14.5799 10.4442 14.9392 10.4653C15.1103 10.4752 15.2748 10.4769 15.3874 10.3911C15.9362 9.97325 16.4234 9.5924 16.8572 9.25427Z" fill="white"/>
</g>
</svg>
