<svg width="32" height="33" viewBox="0 0 32 33" xmlns="http://www.w3.org/2000/svg">
<path fill-rule="evenodd" clip-rule="evenodd" d="M24.4702 0.476562V9.66231L14.0045 20.128C13.4774 20.6551 13.1763 21.3704 13.1763 22.1233V28.7114H19.7644C20.5173 28.7114 21.2326 28.4103 21.7597 27.8832L24.4702 25.1727V32.4761H0V0.476562H24.4702ZM26.6274 10.1649C26.9963 9.79596 27.5911 9.79596 27.9601 10.1649L31.7247 13.9295C32.0918 14.2966 32.0918 14.8914 31.7247 15.2603L20.4307 26.5543C20.2538 26.7293 20.0147 26.8291 19.7644 26.8291H15.0586V22.1233C15.0586 21.873 15.1584 21.6339 15.3334 21.4588L26.6274 10.1649ZM11.294 19.2998H5.647V21.1821H11.294L11.294 19.2998ZM15.0586 15.5352H5.64697V17.4175H15.0586V15.5352H15.0586ZM27.2937 12.1602L25.801 13.6528L28.2349 16.0867L29.7276 14.594L27.2937 12.1602ZM18.8232 6.12355H5.647V11.7705H18.8233V6.12356L18.8232 6.12355Z" fill="currentColor"/>
</svg>
